<svg width="16" height="16" viewBox="0 0 16 16" fill="none" xmlns="http://www.w3.org/2000/svg">
<rect width="16" height="16" fill="#F5F5F5"/>
<g id="Adaptive Main page 1920 / 320">
<path d="M-1908 -1415C-1908 -1525.46 -1818.46 -1615 -1708 -1615H1587C1697.46 -1615 1787 -1525.46 1787 -1415V6202C1787 6312.46 1697.46 6402 1587 6402H-1708C-1818.46 6402 -1908 6312.46 -1908 6202V-1415Z" fill="#478BF9" fill-opacity="0.01"/>
<g id="1920 - Main_Page" clip-path="url(#clip0_0_1)">
<rect width="1920" height="1265" transform="translate(-1476 -1220)" fill="#110A1D"/>
<g id="Footer">
<mask id="path-3-inside-1_0_1" fill="white">
<path d="M-1476 -18C-1476 -53.3462 -1447.35 -82 -1412 -82H380C415.346 -82 444 -53.3462 444 -18V48H-1476V-18Z"/>
</mask>
<path d="M-1476 -18C-1476 -53.3462 -1447.35 -82 -1412 -82H380C415.346 -82 444 -53.3462 444 -18V48H-1476V-18Z" fill="#1E1231"/>
<g id="Logo, Pages, Socials">
<g id="Socials Area">
<g id="Buttons Socials">
<g id="Buttons - Socials" clip-path="url(#clip1_0_1)">
<g id="BG Vector">
<g id="BG">
<path id="Union" fill-rule="evenodd" clip-rule="evenodd" d="M-8 7.99999C-8 16.8202 -0.823518 24 8.00001 24C16.8202 24 24 16.8202 24 7.99999C24 -0.820177 16.8202 -8 8.00001 -8C-0.820157 -8 -8 -0.820177 -8 7.99999ZM-2.05809 -3.03064C0.59784 -5.45448 4.12925 -6.93446 8.00001 -6.93446C11.8696 -6.93446 15.4 -5.45538 18.0557 -3.03285L16.8681 -1.8453C14.5199 -3.96177 11.4105 -5.25 8 -5.25C4.58828 -5.25 1.47794 -3.96088 -0.870558 -1.84311L-2.05809 -3.03064ZM-3.03249 -2.05605C-5.45524 0.599638 -6.93446 4.13022 -6.93446 7.99999C-6.93446 11.8694 -5.45549 15.3997 -3.03312 18.0553L-1.84559 16.8678C-3.96188 14.5196 -5.25 11.4104 -5.25 8C-5.25 4.58927 -3.96163 1.47974 -1.84495 -0.868511L-3.03249 -2.05605ZM-2.05878 19.03C0.597228 21.4542 4.12891 22.9344 8.00001 22.9344C11.8692 22.9344 15.3992 21.4557 18.0548 19.0337L16.8672 17.8461C14.5191 19.9621 11.4101 21.25 8 21.25C4.58794 21.25 1.47731 19.9606 -0.871264 17.8425L-2.05878 19.03ZM22.9345 7.99999C22.9345 11.8714 21.454 15.4033 19.0295 18.0593L17.842 16.8718C19.9604 14.5232 21.25 11.4123 21.25 8C21.25 4.5881 19.9607 1.47761 17.8428 -0.870928L19.0303 -2.05846C21.4543 0.597504 22.9345 4.12905 22.9345 7.99999Z" fill="#478BF9"/>
</g>
</g>
<g id="Twitter">
<g id="Vector">
<path id="Vector_2" d="M13.3116 5.5386V5.91283C13.3116 9.68139 10.5585 14.0001 5.52064 14.0001C4.03341 14.0034 2.57777 13.5546 1.33325 12.709C1.54939 12.7394 1.76741 12.7532 1.9855 12.7501C3.2183 12.7536 4.41643 12.3266 5.38731 11.5376C4.81458 11.5288 4.25908 11.3328 3.79976 10.9774C3.34044 10.622 3.00067 10.1253 2.82875 9.55789C2.99935 9.59545 3.17328 9.61426 3.34767 9.61402C3.59118 9.61408 3.8336 9.58009 4.06839 9.51298C3.44806 9.38456 2.88998 9.03625 2.48965 8.52766C2.08932 8.01907 1.87161 7.38181 1.87379 6.72493V6.6875C2.25332 6.90767 2.67883 7.02842 3.11343 7.03928C2.53491 6.64393 2.12359 6.03408 1.96351 5.33434C1.80344 4.63461 1.90669 3.8978 2.25217 3.27447C2.94055 4.15374 3.79941 4.87271 4.77291 5.38465C5.74641 5.89658 6.81275 6.19003 7.90262 6.2459C7.84867 6.0335 7.82321 5.81437 7.82695 5.59473C7.80665 5.01426 7.95913 4.4414 8.2636 3.95414C8.56807 3.46689 9.00975 3.08893 9.52849 2.87173C10.0472 2.65452 10.6178 2.60863 11.1626 2.7403C11.7074 2.87196 12.1998 3.17479 12.5729 3.60754C13.1861 3.47902 13.7744 3.24502 14.3134 2.91521C14.109 3.5856 13.6742 4.15442 13.0918 4.51319C13.6358 4.43535 14.1662 4.27654 14.6666 4.04166C14.3039 4.62009 13.8451 5.12696 13.3116 5.5386Z" fill="#110A1D"/>
</g>
</g>
</g>
</g>
</g>
</g>
<path d="M-1480 -18C-1480 -55.5554 -1449.56 -86 -1412 -86H380C417.555 -86 448 -55.5554 448 -18H440C440 -51.1371 413.137 -78 380 -78H-1412C-1445.14 -78 -1472 -51.1371 -1472 -18H-1480ZM444 48H-1476H444ZM-1480 48V-18C-1480 -55.5554 -1449.56 -86 -1412 -86V-78C-1445.14 -78 -1472 -51.1371 -1472 -18V48H-1480ZM380 -86C417.555 -86 448 -55.5554 448 -18V48H440V-18C440 -51.1371 413.137 -78 380 -78V-86Z" fill="#478BF9" mask="url(#path-3-inside-1_0_1)"/>
</g>
<g id="Banner Area">
<g id="Dot Light" opacity="0.7" filter="url(#filter0_f_0_1)">
<circle cx="323" cy="-251" r="287" fill="url(#paint0_linear_0_1)"/>
</g>
</g>
</g>
<path d="M-1708 -1595H1587V-1635H-1708V-1595ZM1767 -1415V6202H1807V-1415H1767ZM1587 6382H-1708V6422H1587V6382ZM-1888 6202V-1415H-1928V6202H-1888ZM-1708 6382C-1807.41 6382 -1888 6301.41 -1888 6202H-1928C-1928 6323.5 -1829.5 6422 -1708 6422V6382ZM1767 6202C1767 6301.41 1686.41 6382 1587 6382V6422C1708.5 6422 1807 6323.5 1807 6202H1767ZM1587 -1595C1686.41 -1595 1767 -1514.41 1767 -1415H1807C1807 -1536.5 1708.5 -1635 1587 -1635V-1595ZM-1708 -1635C-1829.5 -1635 -1928 -1536.5 -1928 -1415H-1888C-1888 -1514.41 -1807.41 -1595 -1708 -1595V-1635Z" fill="#478BF9"/>
</g>
<defs>
<filter id="filter0_f_0_1" x="-614" y="-1188" width="1874" height="1874" filterUnits="userSpaceOnUse" color-interpolation-filters="sRGB">
<feFlood flood-opacity="0" result="BackgroundImageFix"/>
<feBlend mode="normal" in="SourceGraphic" in2="BackgroundImageFix" result="shape"/>
<feGaussianBlur stdDeviation="325" result="effect1_foregroundBlur_0_1"/>
</filter>
<linearGradient id="paint0_linear_0_1" x1="610" y1="-538" x2="-65.2941" y2="-369.177" gradientUnits="userSpaceOnUse">
<stop stop-color="#478BF9"/>
<stop offset="1" stop-color="#9DADF2"/>
</linearGradient>
<clipPath id="clip0_0_1">
<rect width="1920" height="1265" fill="white" transform="translate(-1476 -1220)"/>
</clipPath>
<clipPath id="clip1_0_1">
<rect width="32" height="32" fill="white" transform="translate(-8 -8)"/>
</clipPath>
</defs>
</svg>
